<?xml version="1.0" encoding="UTF-8" standalone="no"?> <svg id="Capa_1" enable-background="new 0 0 512 512" height="512" viewBox="0 0 512 512" width="512" xmlns="http://www.w3.org/2000/svg"><g><path d="m493.554 437.989h-475.108v-295.639c0-22.858 18.53-41.388 41.388-41.388h392.332c22.858 0 41.388 18.53 41.388 41.388z" fill="#365e7d"/><path d="m493.554 142.35c0-22.858-18.53-41.388-41.388-41.388h-19.152c22.858 0 41.388 18.53 41.388 41.388v257.335c0 10.849-8.795 19.644-19.644 19.644h-436.312v18.661h455.957 19.152v-18.661-276.979z" fill="#2b4d66"/><path d="m49.352 437.989v-295.639c0-5.78 4.702-10.483 10.482-10.483h392.332c5.781 0 10.483 4.703 10.483 10.483v295.639z" fill="#e4f6ff"/><path d="m462.649 142.35c0-5.79-4.693-10.483-10.483-10.483h-19.152c5.781 0 10.483 4.703 10.483 10.483v233.998c0 23.738-19.243 42.981-42.981 42.981h-351.164v18.661h394.145 19.152v-18.661z" fill="#bed8fb"/><path d="m500.36 496.296h-488.72c-6.428 0-11.64-5.211-11.64-11.64v-35.027c0-6.428 5.211-11.64 11.64-11.64h488.72c6.428 0 11.64 5.211 11.64 11.64v35.027c0 6.428-5.211 11.64-11.64 11.64z" fill="#365e7d"/><path d="m500.36 437.989h-20.182c6.428 0 11.64 5.211 11.64 11.64v35.027c0 6.428-5.211 11.64-11.64 11.64h20.182c6.428 0 11.64-5.211 11.64-11.64v-35.027c0-6.429-5.211-11.64-11.64-11.64z" fill="#2b4d66"/><path d="m289.911 467.216h-67.822c-5.074 0-9.665-3.01-11.687-7.664l-9.37-21.563h109.935l-9.37 21.563c-2.021 4.654-6.612 7.664-11.686 7.664z" fill="#f1f1f4"/><path d="m241.415 437.989h-160.921v-68.529c0-28.916 23.441-52.357 52.357-52.357h56.207c28.916 0 52.357 23.441 52.357 52.357z" fill="#78d0b1"/><path d="m189.058 317.103h-19.612c28.916 0 52.357 23.441 52.357 52.357v32.195c0 9.761-7.913 17.673-17.673 17.673h-123.636v18.661h141.309 19.612v-18.661-49.868c0-28.916-23.441-52.357-52.357-52.357z" fill="#61aab7"/><path d="m160.954 368.674c-10.831 0-19.612-8.78-19.612-19.612v-32.399h39.223v32.399c.001 10.832-8.78 19.612-19.611 19.612z" fill="#d5985c"/><g><path d="m160.956 179.839c-.269 0-.539-.014-.811-.042-3.114-.328-5.722-2.503-6.605-5.508l-5.597-19.06c-1.202-4.094 1.143-8.388 5.236-9.59 4.093-1.203 8.387 1.142 9.591 5.237l.308 1.049 1.375-2.545c2.028-3.754 6.715-5.152 10.471-3.125 3.754 2.029 5.153 6.716 3.125 10.47l-10.298 19.06c-1.358 2.515-3.979 4.054-6.795 4.054z" fill="#2b4d66"/></g><path d="m102.156 252.556-5.764-20.822v-5.361c0-35.657 28.905-64.562 64.562-64.562 35.657 0 64.562 28.905 64.562 64.562v5.547z" fill="#365e7d"/><path d="m160.954 161.811c-3.005 0-5.957.222-8.852.619 31.466 4.317 55.71 31.291 55.71 63.943v31.947l17.704-26.586v-5.361c0-35.656-28.905-64.562-64.562-64.562z" fill="#2b4d66"/><path d="m160.954 336.185c-35.657 0-64.562-28.905-64.562-64.562v-39.978c16.385-6.27 27.59-5.979 40.547.12 12.577 5.92 27.13 6.662 39.896 1.162 13.353-5.753 31.963-6.146 48.681-1.282v39.978c0 35.657-28.905 64.562-64.562 64.562z" fill="#f1b986"/><g><path d="m193.241 228.77c.05.005.099.011.149.016 8.33.9 14.576 8.064 14.576 16.442v26.395c0 32.678-24.284 59.668-55.786 63.952 2.871.39 5.797.61 8.776.61 35.657 0 64.562-28.905 64.562-64.562v-39.978c-10.609-3.086-21.973-4.048-32.277-2.875z" fill="#e2a770"/></g><g><g><path d="m137.161 283.877c-4.268 0-7.726-3.459-7.726-7.726v-6.675c0-4.268 3.459-7.726 7.726-7.726s7.726 3.459 7.726 7.726v6.675c0 4.267-3.459 7.726-7.726 7.726z" fill="#2b4d66"/></g><g><path d="m184.748 283.877c-4.268 0-7.726-3.459-7.726-7.726v-6.675c0-4.268 3.459-7.726 7.726-7.726s7.726 3.459 7.726 7.726v6.675c0 4.267-3.458 7.726-7.726 7.726z" fill="#2b4d66"/></g></g><path d="m436.65 26.389c0-5.901-4.783-10.684-10.684-10.684h-174.736c-5.901 0-10.684 4.783-10.684 10.684v133.935c0 5.901 4.783 10.684 10.684 10.684h11.059c4.747 0 9.133 2.532 11.507 6.643l20.463 35.443c.279.484.796.782 1.355.782s1.075-.298 1.355-.782l20.463-35.443c2.374-4.111 6.76-6.643 11.507-6.643h97.027c5.901 0 10.684-4.783 10.684-10.684z" fill="#f9efda"/><path d="m425.966 15.704h-20.35c5.901 0 10.684 4.784 10.684 10.684v133.935c0 5.901-4.784 10.684-10.684 10.684h20.35c5.901 0 10.684-4.783 10.684-10.684v-133.934c0-5.901-4.784-10.685-10.684-10.685z" fill="#ecd5c6"/><g><path d="m338.537 125.987-5.122-.897c-28.334-4.962-47.282-31.953-42.32-60.287l.627-3.581c.149-.851.96-1.42 1.811-1.271l3.581.627c28.334 4.962 47.282 31.953 42.32 60.287z" fill="#da387d"/><g><path d="m338.659 125.987 5.122-.897c28.334-4.962 47.282-31.953 42.32-60.287l-.627-3.581c-.149-.851-.96-1.42-1.811-1.271l-3.581.627c-28.334 4.962-47.282 31.953-42.32 60.287z" fill="#da387d"/></g></g><path d="m338.598 142.661h-5.2c-28.765 0-52.084-23.319-52.084-52.084v-3.637c0-.864.7-1.564 1.564-1.564h3.636c28.765 0 52.084 23.319 52.084 52.084z" fill="#eaaadd"/><path d="m338.598 142.661v-5.2c0-28.765 23.319-52.084 52.084-52.084h3.636c.864 0 1.564.7 1.564 1.564v3.636c0 28.765-23.319 52.084-52.084 52.084z" fill="#eaaadd"/><path d="m338.598 142.661-4.476-4.476c-24.758-24.758-24.758-64.899 0-89.657l3.37-3.37c.611-.611 1.601-.611 2.212 0l3.37 3.37c24.758 24.758 24.758 64.899 0 89.657z" fill="#e490d0"/><path d="m343.074 138.185c24.758-24.758 24.758-64.899 0-89.657l-3.37-3.37c-.611-.611-1.601-.611-2.212 0l-3.37 3.37c-.939.939-1.83 1.907-2.698 2.888 21.145 23.918 21.145 59.963 0 83.881.868.981 1.759 1.949 2.698 2.888l4.476 4.476z" fill="#df73c1"/><g><path d="m410.562 265.82h-123.945c-4.143 0-7.5-3.357-7.5-7.5 0-4.142 3.357-7.5 7.5-7.5h123.945c4.143 0 7.5 3.358 7.5 7.5s-3.357 7.5-7.5 7.5z" fill="#2b4d66"/></g><g><path d="m410.562 318.694h-123.945c-4.143 0-7.5-3.357-7.5-7.5s3.357-7.5 7.5-7.5h123.945c4.143 0 7.5 3.357 7.5 7.5s-3.357 7.5-7.5 7.5z" fill="#2b4d66"/></g><g><path d="m410.562 371.567h-123.945c-4.143 0-7.5-3.357-7.5-7.5s3.357-7.5 7.5-7.5h123.945c4.143 0 7.5 3.357 7.5 7.5s-3.357 7.5-7.5 7.5z" fill="#2b4d66"/></g></g></svg>